HIERARCHY
ROOT Hips
{
 OFFSET 0.000000 0.000000 0.000000
 CHANNELS 6 Xposition Yposition Zposition Yrotation Xrotation Zrotation
 JOINT Chest
 {
  OFFSET 0.000000 10.383400 0.001500
  CHANNELS 3 Yrotation Xrotation Zrotation
  JOINT Chest2
  {
   OFFSET 0.000000 10.418200 -0.003100
   CHANNELS 3 Yrotation Xrotation Zrotation
   JOINT Chest3
   {
    OFFSET 0.000000 10.375100 0.000000
    CHANNELS 3 Yrotation Xrotation Zrotation
    JOINT Chest4
    {
     OFFSET 0.000000 10.364600 0.000000
     CHANNELS 3 Yrotation Xrotation Zrotation
     JOINT Neck
     {
      OFFSET 0.000000 15.642200 0.000000
      CHANNELS 3 Yrotation Xrotation Zrotation
      JOINT Head
      {
       OFFSET 0.000000 9.697300 -0.006500
       CHANNELS 3 Yrotation Xrotation Zrotation
       End Site
       {
        OFFSET 0.000000 18.492200 -0.003400
       }
      }
     }
     JOINT RightCollar
     {
      OFFSET -3.166800 10.349300 0.000000
      CHANNELS 3 Yrotation Xrotation Zrotation
      JOINT RightShoulder
      {
       OFFSET -14.729700 0.000000 0.000000
       CHANNELS 3 Yrotation Xrotation Zrotation
       JOINT RightElbow
       {
        OFFSET 0.000000 -32.224300 0.000000
        CHANNELS 3 Yrotation Xrotation Zrotation
        JOINT RightWrist
        {
         OFFSET 0.000000 -26.084100 0.000000
         CHANNELS 3 Yrotation Xrotation Zrotation
         End Site
         {
          OFFSET 0.000000 -19.319400 0.000000
         }
        }
       }
      }
     }
     JOINT LeftCollar
     {
      OFFSET 3.166800 10.349300 0.000000
      CHANNELS 3 Yrotation Xrotation Zrotation
      JOINT LeftShoulder
      {
       OFFSET 14.729700 0.000000 0.000000
       CHANNELS 3 Yrotation Xrotation Zrotation
       JOINT LeftElbow
       {
        OFFSET 0.000000 -32.224300 0.000000
        CHANNELS 3 Yrotation Xrotation Zrotation
        JOINT LeftWrist
        {
         OFFSET 0.000000 -26.084100 0.000000
         CHANNELS 3 Yrotation Xrotation Zrotation
         End Site
         {
          OFFSET 0.000000 -19.319400 0.000000
         }
        }
       }
      }
     }
    }
   }
  }
 }
 JOINT RightHip
 {
  OFFSET -8.428900 -0.007500 -0.000800
  CHANNELS 3 Yrotation Xrotation Zrotation
  JOINT RightKnee
  {
   OFFSET 0.000000 -43.834600 0.000700
   CHANNELS 3 Yrotation Xrotation Zrotation
   JOINT RightAnkle
   {
    OFFSET 0.000000 -42.757000 0.001200
    CHANNELS 3 Yrotation Xrotation Zrotation
    JOINT RightToe
    {
     OFFSET 0.000000 -6.946900 15.649300
     CHANNELS 3 Yrotation Xrotation Zrotation
     End Site
     {
      OFFSET 0.000000 -1.580800 6.825800
     }
    }
   }
  }
 }
 JOINT LeftHip
 {
  OFFSET 8.428900 -0.007500 -0.000800
  CHANNELS 3 Yrotation Xrotation Zrotation
  JOINT LeftKnee
  {
   OFFSET 0.000000 -43.834600 0.000700
   CHANNELS 3 Yrotation Xrotation Zrotation
   JOINT LeftAnkle
   {
    OFFSET 0.000000 -42.757000 0.001200
    CHANNELS 3 Yrotation Xrotation Zrotation
    JOINT LeftToe
    {
     OFFSET 0.000000 -6.946900 15.649300
     CHANNELS 3 Yrotation Xrotation Zrotation
     End Site
     {
      OFFSET 0.000000 -1.580800 6.825800
     }
    }
   }
  }
 }
}
MOTION
Frames: 9
Frame Time: 0.008333
0.000000 93.354300 0.000000 0.000000 -5.767877 0.000000 0.000000 11.653817 0.000000 0.000000 -5.885947 0.000000 0.000000 -0.000000 0.000000 0.000000 -0.000000 0.000000 0.000000 12.528835 0.000000 0.000000 0.711642 0.000000 0.000000 -0.000000 0.000000 0.000000 0.000000 -90.000000 0.000000 -2.309062 0.000000 0.000000 2.309062 0.000000 0.000000 -0.000000 0.000000 0.000000 -0.000000 90.000000 0.000000 -2.309062 0.000000 0.000000 2.309062 0.000000 0.000000 8.520406 0.000000 0.000000 1.905762 0.000000 -0.000000 -4.658285 0.000000 0.000000 -0.000000 0.000000 0.000000 8.520406 0.000000 0.000000 1.905762 0.000000 -0.000000 -4.658285 0.000000 0.000000 -0.000000 0.000000
123.519635 126.918075 35.073211 -14.628222 -27.845560 -1.067285 -1.760574 16.121657 2.159873 -0.210441 1.614550 0.240464 -0.324599 2.695408 0.389518 -1.600192 14.261730 1.940334 2.331220 15.825697 -1.841041 4.971841 -6.279115 -4.238887 -1.084949 -4.490024 -4.607393 5.524772 -10.412637 -5.562312 22.765357 -45.234258 -1.981443 8.578708 5.061086 -20.685565 -0.752127 -7.138776 -2.143681 -5.449503 -5.902929 3.879454 -31.546396 -48.117125 11.067767 -25.798502 5.652251 19.143816 -7.700338 -40.245681 -2.636540 -33.948343 80.824551 -34.954968 4.758675 -11.278371 2.254267 0.001440 -0.009090 0.000639 -3.775492 -32.880958 -6.894751 -4.789420 74.710588 -1.413857 -11.304909 -11.726249 -1.529751 -0.000355 0.000152 -0.000157
123.519559 126.918276 35.072881 -14.623675 -27.848125 -1.069107 -1.754144 16.121525 2.159039 -0.210559 1.614753 0.239273 -0.324386 2.694387 0.390371 -1.591120 14.263370 1.937174 2.324714 15.820288 -1.832355 4.965195 -6.276425 -4.230740 -1.103669 -4.484595 -4.593913 5.525064 -10.416016 -5.566640 22.764130 -45.237599 -1.983596 8.581810 5.058760 -20.682943 -0.769624 -7.134307 -2.132030 -5.447417 -5.907727 3.875978 -31.545697 -48.117866 11.069162 -25.794814 5.651014 19.147072 -7.705330 -40.238661 -2.633830 -33.927704 80.821274 -34.938406 4.756627 -11.281865 2.256229 0.002140 -0.006804 0.000950 -3.774093 -32.880433 -6.899527 -4.788409 74.713231 -1.415241 -11.283013 -11.722834 -1.531666 0.000040 -0.000077 0.000018
123.519707 126.918381 35.072333 -14.622458 -27.849690 -1.068186 -1.752749 16.122281 2.157615 -0.198508 1.610007 0.234636 -0.333137 2.697010 0.392865 -1.581658 14.261116 1.934865 2.317453 15.819542 -1.825952 4.959047 -6.284970 -4.218204 -1.121809 -4.473393 -4.584765 5.527355 -10.420359 -5.566401 22.765123 -45.239258 -1.984879 8.583888 5.057166 -20.683707 -0.778867 -7.125099 -2.129334 -5.451331 -5.909920 3.878965 -31.544663 -48.120618 11.070981 -25.796668 5.648075 19.148236 -7.706027 -40.235191 -2.634360 -33.910209 80.819267 -34.923121 4.754386 -11.282981 2.256929 0.002106 -0.006257 0.000935 -3.771793 -32.880748 -6.903868 -4.783075 74.714225 -1.411716 -11.274344 -11.719422 -1.531761 0.000277 -0.000099 0.000123
123.520039 126.918476 35.071772 -14.621832 -27.851366 -1.065754 -1.751238 16.121284 2.153260 -0.198989 1.611323 0.235349 -0.332809 2.696978 0.392111 -1.575605 14.258943 1.930581 2.313584 15.820440 -1.818370 4.959978 -6.298975 -4.210069 -1.128477 -4.465033 -4.578701 5.515739 -10.425474 -5.566242 22.771091 -45.243266 -1.981851 8.586062 5.059337 -20.682222 -0.783587 -7.119454 -2.122764 -5.452599 -5.908273 3.879351 -31.547786 -48.124172 11.073943 -25.797740 5.643780 19.148514 -7.704607 -40.233998 -2.637426 -33.907784 80.820190 -34.923162 4.751991 -11.284563 2.258928 0.001182 -0.007134 0.000525 -3.768054 -32.879824 -6.910587 -4.776094 74.714441 -1.404946 -11.269929 -11.718701 -1.530699 -0.000021 0.000068 -0.000010
123.520037 126.918408 35.070782 -14.621962 -27.851339 -1.065092 -1.749113 16.118241 2.150695 -0.200422 1.613966 0.237460 -0.332956 2.696041 0.390710 -1.571527 14.260172 1.924403 2.313301 15.818477 -1.810150 4.959919 -6.302963 -4.206523 -1.133926 -4.460544 -4.576173 5.499965 -10.432076 -5.556359 22.780317 -45.244854 -1.985851 8.596139 5.059858 -20.673490 -0.787229 -7.117022 -2.114927 -5.448957 -5.907525 3.880846 -31.555972 -48.133374 11.076149 -25.795952 5.645180 19.145594 -7.701208 -40.234494 -2.639632 -33.910659 80.818332 -34.925443 4.752662 -11.282324 2.260529 0.000359 -0.008316 0.000159 -3.766963 -32.880901 -6.910779 -4.777280 74.715140 -1.409337 -11.269397 -11.719341 -1.529119 0.000240 0.000198 0.000106
123.520142 126.918519 35.070240 -14.626408 -27.854057 -1.060950 -1.746991 16.118247 2.146810 -0.199307 1.616109 0.237897 -0.333342 2.693076 0.389680 -1.569903 14.263408 1.924525 2.313480 15.814620 -1.811543 4.958976 -6.301294 -4.201594 -1.135083 -4.458764 -4.577247 5.488766 -10.435479 -5.552791 22.793189 -45.247668 -1.993183 8.600675 5.058597 -20.666919 -0.788279 -7.115784 -2.113441 -5.443739 -5.907969 3.880892 -31.569111 -48.140542 11.089420 -25.790142 5.645419 19.136702 -7.689933 -40.231968 -2.645372 -33.911492 80.815548 -34.924491 4.752535 -11.279502 2.262223 -0.000579 -0.008585 -0.000257 -3.761326 -32.877264 -6.915493 -4.765704 74.713631 -1.399830 -11.265574 -11.720500 -1.529565 0.000823 0.000825 0.000365
123.519352 126.918991 35.070187 -14.630426 -27.861097 -1.060874 -1.743440 16.124091 2.147719 -0.200648 1.612884 0.236106 -0.331585 2.695047 0.391008 -1.569190 14.264600 1.923897 2.312737 15.810957 -1.811170 4.958457 -6.297932 -4.198783 -1.135592 -4.456604 -4.576169 5.487297 -10.434686 -5.555179 22.797719 -45.254385 -2.003997 8.600144 5.058224 -20.658982 -0.787046 -7.110269 -2.113206 -5.439333 -5.915090 3.880257 -31.574785 -48.137799 11.091957 -25.789075 5.643459 19.136982 -7.682776 -40.224937 -2.646546 -33.918827 80.814907 -34.930519 4.755920 -11.272795 2.265119 -0.000570 -0.007601 -0.000253 -3.757618 -32.869712 -6.916881 -4.754863 74.713791 -1.387890 -11.267491 -11.721118 -1.530838 0.000828 0.000912 0.000368
123.519816 126.919325 35.070319 -14.625640 -27.866761 -1.057762 -1.748857 16.124781 2.141063 -0.200499 1.612387 0.235845 -0.331841 2.697510 0.391480 -1.567786 14.252900 1.921160 2.311729 15.822586 -1.807233 4.952073 -6.299342 -4.196943 -1.138212 -4.442383 -4.570048 5.486161 -10.429643 -5.558198 22.800865 -45.258867 -2.008661 8.600235 5.058013 -20.655093 -0.784545 -7.094230 -2.108603 -5.436078 -5.920760 3.876720 -31.580660 -48.133710 11.091251 -25.787841 5.642556 19.138384 -7.680263 -40.219973 -2.655721 -33.933411 80.815424 -34.945030 4.757043 -11.271192 2.268650 0.000524 -0.007388 0.000232 -3.758222 -32.864276 -6.925728 -4.745459 74.712436 -1.378616 -11.273670 -11.719154 -1.530854 0.000565 0.001288 0.000251
